<svg xmlns="http://www.w3.org/2000/svg" viewBox="0 0 740 380" width="740" height="380" role="img" aria-label="Rink Reports">
  <defs>
    <clipPath id="rink"><rect x="24" y="60" width="692" height="260" rx="92" ry="92"/></clipPath>
    <filter id="wm-shadow" x="-20%" y="-20%" width="140%" height="160%">
      <feDropShadow dx="0" dy="6" stdDeviation="6" flood-color="#0b2545" flood-opacity="0.28"/>
    </filter>
  </defs>

  <!-- Ice surface -->
  <rect x="24" y="60" width="692" height="260" rx="92" ry="92" fill="#e9f2fa"/>

  <!-- Rink markings -->
  <g clip-path="url(#rink)">
    <line x1="96" y1="60" x2="96" y2="320" stroke="#e11d2a" stroke-width="3"/>
    <path d="M96 96 l-30 -16 M96 284 l-30 16" stroke="#e11d2a" stroke-width="3" fill="none" stroke-linecap="round"/>
    <line x1="644" y1="60" x2="644" y2="320" stroke="#e11d2a" stroke-width="3"/>
    <path d="M644 96 l30 -16 M644 284 l30 16" stroke="#e11d2a" stroke-width="3" fill="none" stroke-linecap="round"/>
    <line x1="250" y1="60" x2="250" y2="320" stroke="#1f56b0" stroke-width="9"/>
    <line x1="490" y1="60" x2="490" y2="320" stroke="#1f56b0" stroke-width="9"/>
    <line x1="370" y1="60" x2="370" y2="320" stroke="#e11d2a" stroke-width="5" stroke-dasharray="14 9"/>
    <circle cx="370" cy="190" r="44" fill="none" stroke="#1f56b0" stroke-width="3.5"/>
    <circle cx="370" cy="190" r="6" fill="#1f56b0"/>
    <path d="M96 166 A24 24 0 0 1 96 214 Z" fill="#bcd9ec" stroke="#e11d2a" stroke-width="3.5" stroke-linejoin="round"/>
    <path d="M644 166 A24 24 0 0 0 644 214 Z" fill="#bcd9ec" stroke="#e11d2a" stroke-width="3.5" stroke-linejoin="round"/>
    <circle cx="158" cy="132" r="38" fill="none" stroke="#e11d2a" stroke-width="3"/>
    <circle cx="158" cy="132" r="5" fill="#e11d2a"/>
    <path d="M148 122 h-12 M148 122 v-12 M148 142 h-12 M148 142 v12 M168 122 h12 M168 122 v-12 M168 142 h12 M168 142 v12" stroke="#e11d2a" stroke-width="3" fill="none" stroke-linecap="round"/>
    <circle cx="158" cy="248" r="38" fill="none" stroke="#e11d2a" stroke-width="3"/>
    <circle cx="158" cy="248" r="5" fill="#e11d2a"/>
    <path d="M148 238 h-12 M148 238 v-12 M148 258 h-12 M148 258 v12 M168 238 h12 M168 238 v-12 M168 258 h12 M168 258 v12" stroke="#e11d2a" stroke-width="3" fill="none" stroke-linecap="round"/>
    <circle cx="582" cy="132" r="38" fill="none" stroke="#e11d2a" stroke-width="3"/>
    <circle cx="582" cy="132" r="5" fill="#e11d2a"/>
    <path d="M572 122 h-12 M572 122 v-12 M572 142 h-12 M572 142 v12 M592 122 h12 M592 122 v-12 M592 142 h12 M592 142 v12" stroke="#e11d2a" stroke-width="3" fill="none" stroke-linecap="round"/>
    <circle cx="582" cy="248" r="38" fill="none" stroke="#e11d2a" stroke-width="3"/>
    <circle cx="582" cy="248" r="5" fill="#e11d2a"/>
    <path d="M572 238 h-12 M572 238 v-12 M572 258 h-12 M572 258 v12 M592 238 h12 M592 238 v-12 M592 258 h12 M592 258 v12" stroke="#e11d2a" stroke-width="3" fill="none" stroke-linecap="round"/>
    <circle cx="131.1" cy="105.1" r="13" fill="#dff0cf"/>
    <circle cx="131.1" cy="105.1" r="13" fill="none" stroke="#5aab1c" stroke-width="3.4" stroke-dasharray="5 5" stroke-linecap="round"/>
    <circle cx="131.1" cy="105.1" r="5.4" fill="#69be28"/>
    <circle cx="184.9" cy="105.1" r="13" fill="#d6e2ef"/>
    <circle cx="184.9" cy="105.1" r="13" fill="none" stroke="#0b2545" stroke-width="3.4" stroke-dasharray="5 5" stroke-linecap="round"/>
    <circle cx="184.9" cy="105.1" r="5.4" fill="#0b2545"/>
    <circle cx="184.9" cy="158.9" r="13" fill="#dff0cf"/>
    <circle cx="184.9" cy="158.9" r="13" fill="none" stroke="#5aab1c" stroke-width="3.4" stroke-dasharray="5 5" stroke-linecap="round"/>
    <circle cx="184.9" cy="158.9" r="5.4" fill="#69be28"/>
    <circle cx="131.1" cy="158.9" r="13" fill="#d6e2ef"/>
    <circle cx="131.1" cy="158.9" r="13" fill="none" stroke="#0b2545" stroke-width="3.4" stroke-dasharray="5 5" stroke-linecap="round"/>
    <circle cx="131.1" cy="158.9" r="5.4" fill="#0b2545"/>
    <circle cx="131.1" cy="221.1" r="13" fill="#dff0cf"/>
    <circle cx="131.1" cy="221.1" r="13" fill="none" stroke="#5aab1c" stroke-width="3.4" stroke-dasharray="5 5" stroke-linecap="round"/>
    <circle cx="131.1" cy="221.1" r="5.4" fill="#69be28"/>
    <circle cx="184.9" cy="221.1" r="13" fill="#d6e2ef"/>
    <circle cx="184.9" cy="221.1" r="13" fill="none" stroke="#0b2545" stroke-width="3.4" stroke-dasharray="5 5" stroke-linecap="round"/>
    <circle cx="184.9" cy="221.1" r="5.4" fill="#0b2545"/>
    <circle cx="184.9" cy="274.9" r="13" fill="#dff0cf"/>
    <circle cx="184.9" cy="274.9" r="13" fill="none" stroke="#5aab1c" stroke-width="3.4" stroke-dasharray="5 5" stroke-linecap="round"/>
    <circle cx="184.9" cy="274.9" r="5.4" fill="#69be28"/>
    <circle cx="131.1" cy="274.9" r="13" fill="#d6e2ef"/>
    <circle cx="131.1" cy="274.9" r="13" fill="none" stroke="#0b2545" stroke-width="3.4" stroke-dasharray="5 5" stroke-linecap="round"/>
    <circle cx="131.1" cy="274.9" r="5.4" fill="#0b2545"/>
    <circle cx="555.1" cy="105.1" r="13" fill="#dff0cf"/>
    <circle cx="555.1" cy="105.1" r="13" fill="none" stroke="#5aab1c" stroke-width="3.4" stroke-dasharray="5 5" stroke-linecap="round"/>
    <circle cx="555.1" cy="105.1" r="5.4" fill="#69be28"/>
    <circle cx="608.9" cy="105.1" r="13" fill="#d6e2ef"/>
    <circle cx="608.9" cy="105.1" r="13" fill="none" stroke="#0b2545" stroke-width="3.4" stroke-dasharray="5 5" stroke-linecap="round"/>
    <circle cx="608.9" cy="105.1" r="5.4" fill="#0b2545"/>
    <circle cx="608.9" cy="158.9" r="13" fill="#dff0cf"/>
    <circle cx="608.9" cy="158.9" r="13" fill="none" stroke="#5aab1c" stroke-width="3.4" stroke-dasharray="5 5" stroke-linecap="round"/>
    <circle cx="608.9" cy="158.9" r="5.4" fill="#69be28"/>
    <circle cx="555.1" cy="158.9" r="13" fill="#d6e2ef"/>
    <circle cx="555.1" cy="158.9" r="13" fill="none" stroke="#0b2545" stroke-width="3.4" stroke-dasharray="5 5" stroke-linecap="round"/>
    <circle cx="555.1" cy="158.9" r="5.4" fill="#0b2545"/>
    <circle cx="555.1" cy="221.1" r="13" fill="#dff0cf"/>
    <circle cx="555.1" cy="221.1" r="13" fill="none" stroke="#5aab1c" stroke-width="3.4" stroke-dasharray="5 5" stroke-linecap="round"/>
    <circle cx="555.1" cy="221.1" r="5.4" fill="#69be28"/>
    <circle cx="608.9" cy="221.1" r="13" fill="#d6e2ef"/>
    <circle cx="608.9" cy="221.1" r="13" fill="none" stroke="#0b2545" stroke-width="3.4" stroke-dasharray="5 5" stroke-linecap="round"/>
    <circle cx="608.9" cy="221.1" r="5.4" fill="#0b2545"/>
    <circle cx="608.9" cy="274.9" r="13" fill="#dff0cf"/>
    <circle cx="608.9" cy="274.9" r="13" fill="none" stroke="#5aab1c" stroke-width="3.4" stroke-dasharray="5 5" stroke-linecap="round"/>
    <circle cx="608.9" cy="274.9" r="5.4" fill="#69be28"/>
    <circle cx="555.1" cy="274.9" r="13" fill="#d6e2ef"/>
    <circle cx="555.1" cy="274.9" r="13" fill="none" stroke="#0b2545" stroke-width="3.4" stroke-dasharray="5 5" stroke-linecap="round"/>
    <circle cx="555.1" cy="274.9" r="5.4" fill="#0b2545"/>
    <circle cx="300" cy="132" r="13" fill="#dff0cf"/>
    <circle cx="300" cy="132" r="13" fill="none" stroke="#5aab1c" stroke-width="3.4" stroke-dasharray="5 5" stroke-linecap="round"/>
    <circle cx="300" cy="132" r="5.4" fill="#69be28"/>
    <circle cx="300" cy="248" r="13" fill="#d6e2ef"/>
    <circle cx="300" cy="248" r="13" fill="none" stroke="#0b2545" stroke-width="3.4" stroke-dasharray="5 5" stroke-linecap="round"/>
    <circle cx="300" cy="248" r="5.4" fill="#0b2545"/>
    <circle cx="440" cy="132" r="13" fill="#d6e2ef"/>
    <circle cx="440" cy="132" r="13" fill="none" stroke="#0b2545" stroke-width="3.4" stroke-dasharray="5 5" stroke-linecap="round"/>
    <circle cx="440" cy="132" r="5.4" fill="#0b2545"/>
    <circle cx="440" cy="248" r="13" fill="#dff0cf"/>
    <circle cx="440" cy="248" r="13" fill="none" stroke="#5aab1c" stroke-width="3.4" stroke-dasharray="5 5" stroke-linecap="round"/>
    <circle cx="440" cy="248" r="5.4" fill="#69be28"/>
    <circle cx="370" cy="90" r="13" fill="#d6e2ef"/>
    <circle cx="370" cy="90" r="13" fill="none" stroke="#0b2545" stroke-width="3.4" stroke-dasharray="5 5" stroke-linecap="round"/>
    <circle cx="370" cy="90" r="5.4" fill="#0b2545"/>
    <circle cx="370" cy="290" r="13" fill="#d6e2ef"/>
    <circle cx="370" cy="290" r="13" fill="none" stroke="#0b2545" stroke-width="3.4" stroke-dasharray="5 5" stroke-linecap="round"/>
    <circle cx="370" cy="290" r="5.4" fill="#0b2545"/>
  </g>

  <!-- Rink border -->
  <rect x="24" y="60" width="692" height="260" rx="92" ry="92" fill="none" stroke="#0b2545" stroke-width="10"/>

  <!-- Wordmark -->
  <g filter="url(#wm-shadow)" font-family="Anton, Impact, 'Arial Narrow', sans-serif" font-weight="700" text-anchor="middle" fill="#69be28" stroke="#ffffff" stroke-width="8" paint-order="stroke fill" stroke-linejoin="round">
    <text x="370" y="180" font-size="112" letter-spacing="2">RINK</text>
    <text x="370" y="268" font-size="74" letter-spacing="2">REPORTS</text>
  </g>
</svg>
