<svg xmlns="http://www.w3.org/2000/svg" viewBox="0 0 768 362" width="768" height="362" role="img" aria-label="Rink Reports">
  <defs>
    <clipPath id="rink"><rect x="36" y="29" width="696" height="304" rx="92" ry="92"/></clipPath>
    <filter id="wm-shadow" x="-15%" y="-25%" width="130%" height="170%">
      <feDropShadow dx="0" dy="5" stdDeviation="5" flood-color="#002244" flood-opacity="0.30"/>
    </filter>
  </defs>

  <!-- Ice surface -->
  <rect x="36" y="29" width="696" height="304" rx="92" ry="92" fill="#e8f4f8"/>

  <!-- Rink markings (clipped to ice) -->
  <g clip-path="url(#rink)">
    <line x1="65" y1="29" x2="65" y2="333" stroke="#cc0000" stroke-width="3"/>
    <path d="M65 103 l-34 -18 M65 259 l-34 18" stroke="#cc0000" stroke-width="3" fill="none" stroke-linecap="round"/>
    <line x1="703" y1="29" x2="703" y2="333" stroke="#cc0000" stroke-width="3"/>
    <path d="M703 103 l34 -18 M703 259 l34 18" stroke="#cc0000" stroke-width="3" fill="none" stroke-linecap="round"/>
    <line x1="255" y1="29" x2="255" y2="333" stroke="#0044aa" stroke-width="10"/>
    <line x1="513" y1="29" x2="513" y2="333" stroke="#0044aa" stroke-width="10"/>
    <line x1="384" y1="29" x2="384" y2="333" stroke="#cc0000" stroke-width="5" stroke-dasharray="13 9"/>
    <circle cx="384" cy="181" r="46" fill="none" stroke="#0044aa" stroke-width="3.5"/>
    <circle cx="384" cy="181" r="6" fill="#0044aa"/>
    <path d="M65 132 A49 49 0 0 1 65 230 Z" fill="#add8e6" stroke="#cc0000" stroke-width="3" stroke-linejoin="round"/>
    <path d="M703 132 A49 49 0 0 0 703 230 Z" fill="#add8e6" stroke="#cc0000" stroke-width="3" stroke-linejoin="round"/>
    <circle cx="137" cy="98" r="53" fill="none" stroke="#cc0000" stroke-width="3"/>
    <circle cx="137" cy="98" r="4.6" fill="#cc0000"/>
    <path d="M118 79 h11 M118 79 v11 M118 117 h11 M118 117 v-11 M156 79 h-11 M156 79 v11 M156 117 h-11 M156 117 v-11 M126 32 v22 M126 142 v22 M148 32 v22 M148 142 v22" stroke="#cc0000" stroke-width="3" fill="none" stroke-linecap="round"/>
    <circle cx="137" cy="264" r="53" fill="none" stroke="#cc0000" stroke-width="3"/>
    <circle cx="137" cy="264" r="4.6" fill="#cc0000"/>
    <path d="M118 245 h11 M118 245 v11 M118 283 h11 M118 283 v-11 M156 245 h-11 M156 245 v11 M156 283 h-11 M156 283 v-11 M126 198 v22 M126 308 v22 M148 198 v22 M148 308 v22" stroke="#cc0000" stroke-width="3" fill="none" stroke-linecap="round"/>
    <circle cx="631" cy="98" r="53" fill="none" stroke="#cc0000" stroke-width="3"/>
    <circle cx="631" cy="98" r="4.6" fill="#cc0000"/>
    <path d="M612 79 h11 M612 79 v11 M612 117 h11 M612 117 v-11 M650 79 h-11 M650 79 v11 M650 117 h-11 M650 117 v-11 M620 32 v22 M620 142 v22 M642 32 v22 M642 142 v22" stroke="#cc0000" stroke-width="3" fill="none" stroke-linecap="round"/>
    <circle cx="631" cy="264" r="53" fill="none" stroke="#cc0000" stroke-width="3"/>
    <circle cx="631" cy="264" r="4.6" fill="#cc0000"/>
    <path d="M612 245 h11 M612 245 v11 M612 283 h11 M612 283 v-11 M650 245 h-11 M650 245 v11 M650 283 h-11 M650 283 v-11 M620 198 v22 M620 308 v22 M642 198 v22 M642 308 v22" stroke="#cc0000" stroke-width="3" fill="none" stroke-linecap="round"/>
    <!-- decorative ring grid -->
    <circle cx="85" cy="68" r="13" fill="#dff0d8"/>
    <circle cx="85" cy="68" r="13" fill="none" stroke="#4f9c1a" stroke-width="3" stroke-dasharray="4.6 4.6" stroke-linecap="round"/>
    <circle cx="85" cy="68" r="4.8" fill="#69be28"/>
    <circle cx="175" cy="68" r="13" fill="#d0e0f0"/>
    <circle cx="175" cy="68" r="13" fill="none" stroke="#002244" stroke-width="3" stroke-dasharray="4.6 4.6" stroke-linecap="round"/>
    <circle cx="175" cy="68" r="4.8" fill="#002244"/>
    <circle cx="276" cy="68" r="13" fill="#dff0d8"/>
    <circle cx="276" cy="68" r="13" fill="none" stroke="#4f9c1a" stroke-width="3" stroke-dasharray="4.6 4.6" stroke-linecap="round"/>
    <circle cx="276" cy="68" r="4.8" fill="#69be28"/>
    <circle cx="384" cy="68" r="13" fill="#d0e0f0"/>
    <circle cx="384" cy="68" r="13" fill="none" stroke="#002244" stroke-width="3" stroke-dasharray="4.6 4.6" stroke-linecap="round"/>
    <circle cx="384" cy="68" r="4.8" fill="#002244"/>
    <circle cx="492" cy="68" r="13" fill="#dff0d8"/>
    <circle cx="492" cy="68" r="13" fill="none" stroke="#4f9c1a" stroke-width="3" stroke-dasharray="4.6 4.6" stroke-linecap="round"/>
    <circle cx="492" cy="68" r="4.8" fill="#69be28"/>
    <circle cx="593" cy="68" r="13" fill="#d0e0f0"/>
    <circle cx="593" cy="68" r="13" fill="none" stroke="#002244" stroke-width="3" stroke-dasharray="4.6 4.6" stroke-linecap="round"/>
    <circle cx="593" cy="68" r="4.8" fill="#002244"/>
    <circle cx="683" cy="68" r="13" fill="#dff0d8"/>
    <circle cx="683" cy="68" r="13" fill="none" stroke="#4f9c1a" stroke-width="3" stroke-dasharray="4.6 4.6" stroke-linecap="round"/>
    <circle cx="683" cy="68" r="4.8" fill="#69be28"/>
    <circle cx="85" cy="131" r="13" fill="#d0e0f0"/>
    <circle cx="85" cy="131" r="13" fill="none" stroke="#002244" stroke-width="3" stroke-dasharray="4.6 4.6" stroke-linecap="round"/>
    <circle cx="85" cy="131" r="4.8" fill="#002244"/>
    <circle cx="175" cy="131" r="13" fill="#dff0d8"/>
    <circle cx="175" cy="131" r="13" fill="none" stroke="#4f9c1a" stroke-width="3" stroke-dasharray="4.6 4.6" stroke-linecap="round"/>
    <circle cx="175" cy="131" r="4.8" fill="#69be28"/>
    <circle cx="276" cy="131" r="13" fill="#d0e0f0"/>
    <circle cx="276" cy="131" r="13" fill="none" stroke="#002244" stroke-width="3" stroke-dasharray="4.6 4.6" stroke-linecap="round"/>
    <circle cx="276" cy="131" r="4.8" fill="#002244"/>
    <circle cx="384" cy="131" r="13" fill="#dff0d8"/>
    <circle cx="384" cy="131" r="13" fill="none" stroke="#4f9c1a" stroke-width="3" stroke-dasharray="4.6 4.6" stroke-linecap="round"/>
    <circle cx="384" cy="131" r="4.8" fill="#69be28"/>
    <circle cx="492" cy="131" r="13" fill="#d0e0f0"/>
    <circle cx="492" cy="131" r="13" fill="none" stroke="#002244" stroke-width="3" stroke-dasharray="4.6 4.6" stroke-linecap="round"/>
    <circle cx="492" cy="131" r="4.8" fill="#002244"/>
    <circle cx="593" cy="131" r="13" fill="#dff0d8"/>
    <circle cx="593" cy="131" r="13" fill="none" stroke="#4f9c1a" stroke-width="3" stroke-dasharray="4.6 4.6" stroke-linecap="round"/>
    <circle cx="593" cy="131" r="4.8" fill="#69be28"/>
    <circle cx="683" cy="131" r="13" fill="#d0e0f0"/>
    <circle cx="683" cy="131" r="13" fill="none" stroke="#002244" stroke-width="3" stroke-dasharray="4.6 4.6" stroke-linecap="round"/>
    <circle cx="683" cy="131" r="4.8" fill="#002244"/>
    <circle cx="85" cy="181" r="13" fill="#dff0d8"/>
    <circle cx="85" cy="181" r="13" fill="none" stroke="#4f9c1a" stroke-width="3" stroke-dasharray="4.6 4.6" stroke-linecap="round"/>
    <circle cx="85" cy="181" r="4.8" fill="#69be28"/>
    <circle cx="175" cy="181" r="13" fill="#d0e0f0"/>
    <circle cx="175" cy="181" r="13" fill="none" stroke="#002244" stroke-width="3" stroke-dasharray="4.6 4.6" stroke-linecap="round"/>
    <circle cx="175" cy="181" r="4.8" fill="#002244"/>
    <circle cx="276" cy="181" r="13" fill="#dff0d8"/>
    <circle cx="276" cy="181" r="13" fill="none" stroke="#4f9c1a" stroke-width="3" stroke-dasharray="4.6 4.6" stroke-linecap="round"/>
    <circle cx="276" cy="181" r="4.8" fill="#69be28"/>
    <circle cx="384" cy="181" r="13" fill="#d0e0f0"/>
    <circle cx="384" cy="181" r="13" fill="none" stroke="#002244" stroke-width="3" stroke-dasharray="4.6 4.6" stroke-linecap="round"/>
    <circle cx="384" cy="181" r="4.8" fill="#002244"/>
    <circle cx="492" cy="181" r="13" fill="#dff0d8"/>
    <circle cx="492" cy="181" r="13" fill="none" stroke="#4f9c1a" stroke-width="3" stroke-dasharray="4.6 4.6" stroke-linecap="round"/>
    <circle cx="492" cy="181" r="4.8" fill="#69be28"/>
    <circle cx="593" cy="181" r="13" fill="#d0e0f0"/>
    <circle cx="593" cy="181" r="13" fill="none" stroke="#002244" stroke-width="3" stroke-dasharray="4.6 4.6" stroke-linecap="round"/>
    <circle cx="593" cy="181" r="4.8" fill="#002244"/>
    <circle cx="683" cy="181" r="13" fill="#dff0d8"/>
    <circle cx="683" cy="181" r="13" fill="none" stroke="#4f9c1a" stroke-width="3" stroke-dasharray="4.6 4.6" stroke-linecap="round"/>
    <circle cx="683" cy="181" r="4.8" fill="#69be28"/>
    <circle cx="85" cy="231" r="13" fill="#d0e0f0"/>
    <circle cx="85" cy="231" r="13" fill="none" stroke="#002244" stroke-width="3" stroke-dasharray="4.6 4.6" stroke-linecap="round"/>
    <circle cx="85" cy="231" r="4.8" fill="#002244"/>
    <circle cx="175" cy="231" r="13" fill="#dff0d8"/>
    <circle cx="175" cy="231" r="13" fill="none" stroke="#4f9c1a" stroke-width="3" stroke-dasharray="4.6 4.6" stroke-linecap="round"/>
    <circle cx="175" cy="231" r="4.8" fill="#69be28"/>
    <circle cx="276" cy="231" r="13" fill="#d0e0f0"/>
    <circle cx="276" cy="231" r="13" fill="none" stroke="#002244" stroke-width="3" stroke-dasharray="4.6 4.6" stroke-linecap="round"/>
    <circle cx="276" cy="231" r="4.8" fill="#002244"/>
    <circle cx="384" cy="231" r="13" fill="#dff0d8"/>
    <circle cx="384" cy="231" r="13" fill="none" stroke="#4f9c1a" stroke-width="3" stroke-dasharray="4.6 4.6" stroke-linecap="round"/>
    <circle cx="384" cy="231" r="4.8" fill="#69be28"/>
    <circle cx="492" cy="231" r="13" fill="#d0e0f0"/>
    <circle cx="492" cy="231" r="13" fill="none" stroke="#002244" stroke-width="3" stroke-dasharray="4.6 4.6" stroke-linecap="round"/>
    <circle cx="492" cy="231" r="4.8" fill="#002244"/>
    <circle cx="593" cy="231" r="13" fill="#dff0d8"/>
    <circle cx="593" cy="231" r="13" fill="none" stroke="#4f9c1a" stroke-width="3" stroke-dasharray="4.6 4.6" stroke-linecap="round"/>
    <circle cx="593" cy="231" r="4.8" fill="#69be28"/>
    <circle cx="683" cy="231" r="13" fill="#d0e0f0"/>
    <circle cx="683" cy="231" r="13" fill="none" stroke="#002244" stroke-width="3" stroke-dasharray="4.6 4.6" stroke-linecap="round"/>
    <circle cx="683" cy="231" r="4.8" fill="#002244"/>
    <circle cx="85" cy="294" r="13" fill="#dff0d8"/>
    <circle cx="85" cy="294" r="13" fill="none" stroke="#4f9c1a" stroke-width="3" stroke-dasharray="4.6 4.6" stroke-linecap="round"/>
    <circle cx="85" cy="294" r="4.8" fill="#69be28"/>
    <circle cx="175" cy="294" r="13" fill="#d0e0f0"/>
    <circle cx="175" cy="294" r="13" fill="none" stroke="#002244" stroke-width="3" stroke-dasharray="4.6 4.6" stroke-linecap="round"/>
    <circle cx="175" cy="294" r="4.8" fill="#002244"/>
    <circle cx="276" cy="294" r="13" fill="#dff0d8"/>
    <circle cx="276" cy="294" r="13" fill="none" stroke="#4f9c1a" stroke-width="3" stroke-dasharray="4.6 4.6" stroke-linecap="round"/>
    <circle cx="276" cy="294" r="4.8" fill="#69be28"/>
    <circle cx="384" cy="294" r="13" fill="#d0e0f0"/>
    <circle cx="384" cy="294" r="13" fill="none" stroke="#002244" stroke-width="3" stroke-dasharray="4.6 4.6" stroke-linecap="round"/>
    <circle cx="384" cy="294" r="4.8" fill="#002244"/>
    <circle cx="492" cy="294" r="13" fill="#dff0d8"/>
    <circle cx="492" cy="294" r="13" fill="none" stroke="#4f9c1a" stroke-width="3" stroke-dasharray="4.6 4.6" stroke-linecap="round"/>
    <circle cx="492" cy="294" r="4.8" fill="#69be28"/>
    <circle cx="593" cy="294" r="13" fill="#d0e0f0"/>
    <circle cx="593" cy="294" r="13" fill="none" stroke="#002244" stroke-width="3" stroke-dasharray="4.6 4.6" stroke-linecap="round"/>
    <circle cx="593" cy="294" r="4.8" fill="#002244"/>
    <circle cx="683" cy="294" r="13" fill="#dff0d8"/>
    <circle cx="683" cy="294" r="13" fill="none" stroke="#4f9c1a" stroke-width="3" stroke-dasharray="4.6 4.6" stroke-linecap="round"/>
    <circle cx="683" cy="294" r="4.8" fill="#69be28"/>
  </g>

  <!-- Rink border -->
  <rect x="36" y="29" width="696" height="304" rx="92" ry="92" fill="none" stroke="#002244" stroke-width="11"/>

  <!-- Wordmark -->
  <g filter="url(#wm-shadow)" font-family="Anton, Impact, 'Arial Narrow', sans-serif" font-weight="700" text-anchor="middle" fill="#69be28" stroke="#ffffff" stroke-width="8" paint-order="stroke fill" stroke-linejoin="round">
    <text x="384" y="170" font-size="102" letter-spacing="2">RINK</text>
    <text x="384" y="250" font-size="68" letter-spacing="2">REPORTS</text>
  </g>
</svg>
